<?xml version="1.0"?>
<svg xmlns="http://www.w3.org/2000/svg" xmlns:xlink="http://www.w3.org/1999/xlink" id="Layer_1" data-name="Layer 1" viewBox="0 0 512 512" width="512" height="512"><defs><linearGradient id="linear-gradient" x1="409.5" y1="24.712" x2="409.5" y2="478.957" gradientUnits="userSpaceOnUse"><stop offset="0" stop-color="#00efd1"/><stop offset="1" stop-color="#00acea"/></linearGradient><linearGradient id="linear-gradient-2" x1="187" y1="24.712" x2="187" y2="478.957" xlink:href="#linear-gradient"/></defs><title>Adventure</title><path d="M462.5,141H439V58c0-4.418-3.086-8-7.5-8h-43c-4.418,0-8.5,3.582-8.5,8v83H357.5c-4.418,0-8.5,3.582-8.5,8v26c0,4.418,4.078,8,8.5,8H371V454a8,8,0,0,0,11.481,7.2l4.991-2.415A109,109,0,0,0,449,360.668V183h13.5c4.418,0,7.5-3.582,7.5-8V149C470,144.582,466.914,141,462.5,141ZM396,66h27v75H396Zm37,294.668a93.955,93.955,0,0,1-46,80.244V183h46ZM454,167H365V157h89Z" style="fill:url(#linear-gradient)"/><path d="M324.488,106H49.5a7.2,7.2,0,0,0-7.5,7.53V280.7c0,92.965,50.706,136.35,132.92,176.218l8.707,4.283a7.733,7.733,0,0,0,3.429.8,7.86,7.86,0,0,0,3.46-.8l8.572-4.282C281.3,417.047,332,373.662,332,280.7V113.53A7.207,7.207,0,0,0,324.488,106ZM316,280.7c0,84.989-45.278,123.691-123.909,161.821l-5.219,2.59-5.032-2.59C103.212,404.389,58,365.687,58,280.7V122H316Z" style="fill:url(#linear-gradient-2)"/><path d="M177.5,407.677l6,2.912a7.992,7.992,0,0,0,6.983,0l6-2.911c32.243-15.636,51.847-29.444,66.109-46.173,17.255-20.24,25.4-45.083,25.4-75.949V149.711A7.363,7.363,0,0,0,280.477,142H93.506A7.349,7.349,0,0,0,86,149.711V285.555c0,30.867,8.141,55.71,25.4,75.95C125.657,378.233,145.252,392.042,177.5,407.677ZM272,285.556c0,54.816-28.218,80.726-78,105.514V158h78ZM102,158h76V390.071c-48.554-24.491-76-50.436-76-104.516Z" style="fill:url(#linear-gradient-2)"/></svg>
